<svg width="161" height="59" viewBox="0 0 161 59" fill="none" xmlns="http://www.w3.org/2000/svg">
<path d="M10.62 15.228C10.728 15.228 10.821 15.27 10.899 15.354L11.655 16.182C11.127 16.806 10.482 17.289 9.72 17.631C8.964 17.973 8.052 18.144 6.984 18.144C6.048 18.144 5.199 17.982 4.437 17.658C3.681 17.334 3.033 16.881 2.493 16.299C1.959 15.717 1.545 15.021 1.251 14.211C0.957 13.401 0.81 12.51 0.81 11.538C0.81 10.566 0.963 9.675 1.269 8.865C1.581 8.055 2.016 7.359 2.574 6.777C3.132 6.195 3.798 5.742 4.572 5.418C5.352 5.094 6.213 4.932 7.155 4.932C8.073 4.932 8.889 5.082 9.603 5.382C10.317 5.682 10.938 6.081 11.466 6.579L10.836 7.47C10.794 7.536 10.74 7.59 10.674 7.632C10.614 7.674 10.533 7.695 10.431 7.695C10.317 7.695 10.182 7.638 10.026 7.524C9.876 7.41 9.675 7.284 9.423 7.146C9.177 7.002 8.871 6.873 8.505 6.759C8.139 6.645 7.683 6.588 7.137 6.588C6.495 6.588 5.907 6.702 5.373 6.93C4.839 7.152 4.377 7.476 3.987 7.902C3.603 8.322 3.303 8.841 3.087 9.459C2.877 10.071 2.772 10.764 2.772 11.538C2.772 12.324 2.883 13.023 3.105 13.635C3.327 14.247 3.633 14.766 4.023 15.192C4.413 15.618 4.872 15.942 5.4 16.164C5.928 16.386 6.498 16.497 7.11 16.497C7.482 16.497 7.815 16.476 8.109 16.434C8.409 16.386 8.682 16.317 8.928 16.227C9.18 16.137 9.417 16.023 9.639 15.885C9.861 15.741 10.08 15.57 10.296 15.372C10.344 15.33 10.395 15.297 10.449 15.273C10.503 15.243 10.56 15.228 10.62 15.228ZM16.9425 8.712C17.6145 8.712 18.2205 8.823 18.7605 9.045C19.3065 9.261 19.7685 9.576 20.1465 9.99C20.5305 10.398 20.8245 10.893 21.0285 11.475C21.2325 12.051 21.3345 12.699 21.3345 13.419C21.3345 14.139 21.2325 14.79 21.0285 15.372C20.8245 15.954 20.5305 16.449 20.1465 16.857C19.7685 17.265 19.3065 17.58 18.7605 17.802C18.2205 18.018 17.6145 18.126 16.9425 18.126C16.2645 18.126 15.6525 18.018 15.1065 17.802C14.5665 17.58 14.1045 17.265 13.7205 16.857C13.3365 16.449 13.0395 15.954 12.8295 15.372C12.6255 14.79 12.5235 14.139 12.5235 13.419C12.5235 12.699 12.6255 12.051 12.8295 11.475C13.0395 10.893 13.3365 10.398 13.7205 9.99C14.1045 9.576 14.5665 9.261 15.1065 9.045C15.6525 8.823 16.2645 8.712 16.9425 8.712ZM16.9425 16.758C17.8065 16.758 18.4515 16.467 18.8775 15.885C19.3035 15.303 19.5165 14.484 19.5165 13.428C19.5165 12.372 19.3035 11.553 18.8775 10.971C18.4515 10.383 17.8065 10.089 16.9425 10.089C16.0665 10.089 15.4125 10.383 14.9805 10.971C14.5545 11.553 14.3415 12.372 14.3415 13.428C14.3415 14.484 14.5545 15.303 14.9805 15.885C15.4125 16.467 16.0665 16.758 16.9425 16.758ZM25.0485 15.75C25.3365 16.128 25.6455 16.392 25.9755 16.542C26.3115 16.692 26.6865 16.767 27.1005 16.767C27.9045 16.767 28.5255 16.479 28.9635 15.903C29.4075 15.321 29.6295 14.475 29.6295 13.365C29.6295 12.783 29.5785 12.288 29.4765 11.88C29.3805 11.466 29.2365 11.13 29.0445 10.872C28.8585 10.608 28.6275 10.416 28.3515 10.296C28.0755 10.17 27.7635 10.107 27.4155 10.107C26.9055 10.107 26.4615 10.221 26.0835 10.449C25.7115 10.677 25.3665 11.001 25.0485 11.421V15.75ZM24.9585 10.224C25.1505 9.996 25.3545 9.789 25.5705 9.603C25.7925 9.411 26.0295 9.249 26.2815 9.117C26.5335 8.979 26.8005 8.874 27.0825 8.802C27.3705 8.724 27.6765 8.685 28.0005 8.685C28.5225 8.685 28.9935 8.787 29.4135 8.991C29.8395 9.195 30.2025 9.495 30.5025 9.891C30.8025 10.287 31.0335 10.776 31.1955 11.358C31.3635 11.94 31.4475 12.609 31.4475 13.365C31.4475 14.043 31.3545 14.673 31.1685 15.255C30.9885 15.831 30.7275 16.332 30.3855 16.758C30.0495 17.184 29.6355 17.52 29.1435 17.766C28.6575 18.006 28.1085 18.126 27.4965 18.126C26.9505 18.126 26.4825 18.036 26.0925 17.856C25.7025 17.676 25.3545 17.424 25.0485 17.1V21.069H23.2935V8.856H24.3465C24.5925 8.856 24.7455 8.973 24.8055 9.207L24.9585 10.224ZM41.1645 8.856L36.0885 20.655C36.0345 20.787 35.9625 20.889 35.8725 20.961C35.7825 21.033 35.6505 21.069 35.4765 21.069H34.1715L35.8455 17.424L32.0925 8.856H33.6225C33.7725 8.856 33.8895 8.892 33.9735 8.964C34.0575 9.036 34.1175 9.117 34.1535 9.207L36.4755 14.697C36.5235 14.835 36.5685 14.976 36.6105 15.12C36.6585 15.258 36.6975 15.396 36.7275 15.534C36.7695 15.39 36.8145 15.249 36.8625 15.111C36.9105 14.967 36.9615 14.826 37.0155 14.688L39.2565 9.207C39.2985 9.105 39.3645 9.021 39.4545 8.955C39.5445 8.889 39.6465 8.856 39.7605 8.856H41.1645ZM44.1624 10.611C44.4564 10.011 44.8104 9.54 45.2244 9.198C45.6384 8.856 46.1364 8.685 46.7184 8.685C46.9164 8.685 47.1024 8.709 47.2764 8.757C47.4564 8.799 47.6124 8.865 47.7444 8.955L47.6274 10.278C47.5854 10.44 47.4864 10.521 47.3304 10.521C47.2464 10.521 47.1204 10.506 46.9524 10.476C46.7844 10.44 46.6044 10.422 46.4124 10.422C46.1304 10.422 45.8814 10.464 45.6654 10.548C45.4494 10.626 45.2544 10.746 45.0804 10.908C44.9124 11.064 44.7624 11.259 44.6304 11.493C44.4984 11.721 44.3754 11.982 44.2614 12.276V18H42.5064V8.856H43.5144C43.7064 8.856 43.8354 8.892 43.9014 8.964C43.9734 9.03 44.0244 9.15 44.0544 9.324L44.1624 10.611ZM50.9342 8.856V18H49.1792V8.856H50.9342ZM51.2672 6.03C51.2672 6.192 51.2342 6.348 51.1682 6.498C51.1022 6.642 51.0122 6.771 50.8982 6.885C50.7902 6.993 50.6612 7.08 50.5112 7.146C50.3612 7.206 50.2052 7.236 50.0432 7.236C49.8812 7.236 49.7282 7.206 49.5842 7.146C49.4402 7.08 49.3112 6.993 49.1972 6.885C49.0892 6.771 49.0022 6.642 48.9362 6.498C48.8762 6.348 48.8462 6.192 48.8462 6.03C48.8462 5.862 48.8762 5.706 48.9362 5.562C49.0022 5.412 49.0892 5.283 49.1972 5.175C49.3112 5.061 49.4402 4.974 49.5842 4.914C49.7282 4.848 49.8812 4.815 50.0432 4.815C50.2052 4.815 50.3612 4.848 50.5112 4.914C50.6612 4.974 50.7902 5.061 50.8982 5.175C51.0122 5.283 51.1022 5.412 51.1682 5.562C51.2342 5.706 51.2672 5.862 51.2672 6.03ZM56.6882 13.437C57.0002 13.437 57.2732 13.395 57.5072 13.311C57.7472 13.227 57.9452 13.11 58.1012 12.96C58.2632 12.804 58.3832 12.618 58.4612 12.402C58.5452 12.186 58.5872 11.949 58.5872 11.691C58.5872 11.163 58.4252 10.743 58.1012 10.431C57.7832 10.113 57.3122 9.954 56.6882 9.954C56.0702 9.954 55.5992 10.113 55.2752 10.431C54.9572 10.743 54.7982 11.163 54.7982 11.691C54.7982 11.949 54.8372 12.186 54.9152 12.402C54.9992 12.612 55.1192 12.795 55.2752 12.951C55.4372 13.101 55.6352 13.221 55.8692 13.311C56.1092 13.395 56.3822 13.437 56.6882 13.437ZM59.4872 18.477C59.4872 18.261 59.4272 18.09 59.3072 17.964C59.1872 17.832 59.0222 17.73 58.8122 17.658C58.6082 17.58 58.3682 17.526 58.0922 17.496C57.8162 17.46 57.5252 17.433 57.2192 17.415C56.9192 17.397 56.6102 17.382 56.2922 17.37C55.9742 17.352 55.6682 17.322 55.3742 17.28C55.0622 17.436 54.8042 17.625 54.6002 17.847C54.4022 18.069 54.3032 18.33 54.3032 18.63C54.3032 18.822 54.3512 19.002 54.4472 19.17C54.5492 19.338 54.7022 19.482 54.9062 19.602C55.1162 19.728 55.3772 19.824 55.6892 19.89C56.0072 19.962 56.3852 19.998 56.8232 19.998C57.2552 19.998 57.6362 19.959 57.9662 19.881C58.2962 19.809 58.5722 19.704 58.7942 19.566C59.0222 19.434 59.1932 19.275 59.3072 19.089C59.4272 18.903 59.4872 18.699 59.4872 18.477ZM61.2692 9.198V9.855C61.2692 10.071 61.1342 10.206 60.8642 10.26L59.8832 10.404C59.9672 10.59 60.0332 10.788 60.0812 10.998C60.1292 11.202 60.1532 11.418 60.1532 11.646C60.1532 12.096 60.0662 12.504 59.8922 12.87C59.7182 13.23 59.4782 13.539 59.1722 13.797C58.8662 14.055 58.5002 14.253 58.0742 14.391C57.6542 14.529 57.1922 14.598 56.6882 14.598C56.2742 14.598 55.8872 14.553 55.5272 14.463C55.3472 14.571 55.2092 14.691 55.1132 14.823C55.0232 14.949 54.9782 15.075 54.9782 15.201C54.9782 15.411 55.0652 15.567 55.2392 15.669C55.4192 15.771 55.6502 15.846 55.9322 15.894C56.2202 15.936 56.5472 15.963 56.9132 15.975C57.2852 15.987 57.6602 16.008 58.0382 16.038C58.4222 16.062 58.7972 16.11 59.1632 16.182C59.5352 16.248 59.8622 16.359 60.1442 16.515C60.4322 16.665 60.6632 16.875 60.8372 17.145C61.0172 17.409 61.1072 17.754 61.1072 18.18C61.1072 18.576 61.0082 18.96 60.8102 19.332C60.6182 19.704 60.3362 20.034 59.9642 20.322C59.5922 20.61 59.1392 20.841 58.6052 21.015C58.0712 21.189 57.4652 21.276 56.7872 21.276C56.1092 21.276 55.5182 21.21 55.0142 21.078C54.5162 20.946 54.0992 20.769 53.7632 20.547C53.4332 20.325 53.1842 20.067 53.0162 19.773C52.8542 19.479 52.7732 19.173 52.7732 18.855C52.7732 18.411 52.9112 18.036 53.1872 17.73C53.4632 17.418 53.8442 17.175 54.3302 17.001C54.0662 16.881 53.8562 16.719 53.7002 16.515C53.5442 16.305 53.4662 16.029 53.4662 15.687C53.4662 15.555 53.4902 15.42 53.5382 15.282C53.5862 15.138 53.6582 14.997 53.7542 14.859C53.8562 14.715 53.9792 14.58 54.1232 14.454C54.2732 14.328 54.4442 14.214 54.6362 14.112C54.1862 13.86 53.8322 13.527 53.5742 13.113C53.3162 12.693 53.1872 12.204 53.1872 11.646C53.1872 11.196 53.2742 10.791 53.4482 10.431C53.6222 10.071 53.8622 9.762 54.1682 9.504C54.4802 9.246 54.8492 9.048 55.2752 8.91C55.7072 8.772 56.1782 8.703 56.6882 8.703C57.4802 8.703 58.1612 8.868 58.7312 9.198H61.2692ZM64.6345 10.017C65.0185 9.627 65.4415 9.312 65.9035 9.072C66.3715 8.832 66.9085 8.712 67.5145 8.712C68.0185 8.712 68.4595 8.796 68.8375 8.964C69.2215 9.132 69.5425 9.369 69.8005 9.675C70.0585 9.975 70.2535 10.338 70.3855 10.764C70.5175 11.19 70.5835 11.661 70.5835 12.177V18H68.8195V12.177C68.8195 11.523 68.6695 11.016 68.3695 10.656C68.0695 10.29 67.6105 10.107 66.9925 10.107C66.5425 10.107 66.1195 10.215 65.7235 10.431C65.3335 10.641 64.9705 10.929 64.6345 11.295V18H62.8795V4.716H64.6345V10.017ZM75.6907 18.144C74.9527 18.144 74.3827 17.937 73.9807 17.523C73.5847 17.109 73.3867 16.518 73.3867 15.75V10.278H72.3247C72.2227 10.278 72.1357 10.248 72.0637 10.188C71.9977 10.122 71.9647 10.026 71.9647 9.9V9.189L73.4497 8.982L73.8457 6.255C73.8697 6.153 73.9147 6.075 73.9807 6.021C74.0527 5.961 74.1427 5.931 74.2507 5.931H75.1417V9H77.7337V10.278H75.1417V15.633C75.1417 15.993 75.2287 16.263 75.4027 16.443C75.5827 16.617 75.8107 16.704 76.0867 16.704C76.2487 16.704 76.3867 16.683 76.5007 16.641C76.6207 16.599 76.7227 16.554 76.8067 16.506C76.8907 16.452 76.9627 16.404 77.0227 16.362C77.0827 16.32 77.1367 16.299 77.1847 16.299C77.2447 16.299 77.2897 16.314 77.3197 16.344C77.3557 16.368 77.3917 16.41 77.4277 16.47L77.9497 17.316C77.6617 17.58 77.3197 17.784 76.9237 17.928C76.5277 18.072 76.1167 18.144 75.6907 18.144ZM92.529 6.678H88.425V18H86.517V6.678H82.395V5.076H92.529V6.678ZM101.786 16.389V18H94.3879V5.076H96.3049V16.389H101.786ZM110.519 13.185L108.602 8.172C108.464 7.83 108.326 7.398 108.188 6.876C108.122 7.134 108.053 7.374 107.981 7.596C107.915 7.818 107.849 8.016 107.783 8.19L105.875 13.185H110.519ZM114.308 18H112.832C112.664 18 112.526 17.958 112.418 17.874C112.31 17.79 112.232 17.682 112.184 17.55L111.041 14.553H105.344L104.201 17.55C104.159 17.664 104.081 17.769 103.967 17.865C103.853 17.955 103.715 18 103.553 18H102.077L107.225 5.076H109.16L114.308 18ZM127.157 16.335C127.349 16.335 127.499 16.392 127.607 16.506C127.715 16.614 127.769 16.758 127.769 16.938V18H119.093V17.397C119.093 17.277 119.117 17.151 119.165 17.019C119.213 16.881 119.294 16.758 119.408 16.65L123.494 12.555C123.836 12.213 124.145 11.883 124.421 11.565C124.697 11.247 124.931 10.932 125.123 10.62C125.315 10.302 125.462 9.978 125.564 9.648C125.672 9.318 125.726 8.97 125.726 8.604C125.726 8.244 125.669 7.929 125.555 7.659C125.441 7.383 125.285 7.155 125.087 6.975C124.889 6.795 124.655 6.66 124.385 6.57C124.115 6.48 123.824 6.435 123.512 6.435C123.2 6.435 122.912 6.48 122.648 6.57C122.39 6.66 122.159 6.786 121.955 6.948C121.751 7.11 121.58 7.302 121.442 7.524C121.304 7.746 121.205 7.986 121.145 8.244C121.061 8.472 120.953 8.625 120.821 8.703C120.695 8.781 120.509 8.799 120.263 8.757L119.345 8.595C119.429 7.995 119.594 7.467 119.84 7.011C120.086 6.555 120.395 6.174 120.767 5.868C121.139 5.556 121.565 5.322 122.045 5.166C122.531 5.01 123.053 4.932 123.611 4.932C124.175 4.932 124.694 5.016 125.168 5.184C125.648 5.346 126.062 5.583 126.41 5.895C126.758 6.207 127.031 6.588 127.229 7.038C127.427 7.482 127.526 7.986 127.526 8.55C127.526 9.03 127.454 9.477 127.31 9.891C127.172 10.299 126.98 10.689 126.734 11.061C126.494 11.433 126.212 11.796 125.888 12.15C125.57 12.498 125.231 12.852 124.871 13.212L121.595 16.56C121.847 16.494 122.099 16.44 122.351 16.398C122.609 16.356 122.852 16.335 123.08 16.335H127.157ZM138.643 11.538C138.643 12.666 138.52 13.644 138.274 14.472C138.034 15.3 137.701 15.987 137.275 16.533C136.855 17.073 136.357 17.475 135.781 17.739C135.211 18.003 134.596 18.135 133.936 18.135C133.276 18.135 132.658 18.003 132.082 17.739C131.512 17.475 131.017 17.073 130.597 16.533C130.177 15.987 129.847 15.3 129.607 14.472C129.367 13.644 129.247 12.666 129.247 11.538C129.247 10.41 129.367 9.432 129.607 8.604C129.847 7.77 130.177 7.083 130.597 6.543C131.017 5.997 131.512 5.592 132.082 5.328C132.658 5.064 133.276 4.932 133.936 4.932C134.596 4.932 135.211 5.064 135.781 5.328C136.357 5.592 136.855 5.997 137.275 6.543C137.701 7.083 138.034 7.77 138.274 8.604C138.52 9.432 138.643 10.41 138.643 11.538ZM136.825 11.538C136.825 10.566 136.744 9.753 136.582 9.099C136.426 8.445 136.213 7.92 135.943 7.524C135.679 7.122 135.373 6.837 135.025 6.669C134.677 6.501 134.314 6.417 133.936 6.417C133.558 6.417 133.195 6.501 132.847 6.669C132.499 6.837 132.19 7.122 131.92 7.524C131.656 7.92 131.446 8.445 131.29 9.099C131.134 9.753 131.056 10.566 131.056 11.538C131.056 12.51 131.134 13.323 131.29 13.977C131.446 14.631 131.656 15.156 131.92 15.552C132.19 15.948 132.499 16.23 132.847 16.398C133.195 16.566 133.558 16.65 133.936 16.65C134.314 16.65 134.677 16.566 135.025 16.398C135.373 16.23 135.679 15.948 135.943 15.552C136.213 15.156 136.426 14.631 136.582 13.977C136.744 13.323 136.825 12.51 136.825 11.538ZM148.04 16.335C148.232 16.335 148.382 16.392 148.49 16.506C148.598 16.614 148.652 16.758 148.652 16.938V18H139.976V17.397C139.976 17.277 140 17.151 140.048 17.019C140.096 16.881 140.177 16.758 140.291 16.65L144.377 12.555C144.719 12.213 145.028 11.883 145.304 11.565C145.58 11.247 145.814 10.932 146.006 10.62C146.198 10.302 146.345 9.978 146.447 9.648C146.555 9.318 146.609 8.97 146.609 8.604C146.609 8.244 146.552 7.929 146.438 7.659C146.324 7.383 146.168 7.155 145.97 6.975C145.772 6.795 145.538 6.66 145.268 6.57C144.998 6.48 144.707 6.435 144.395 6.435C144.083 6.435 143.795 6.48 143.531 6.57C143.273 6.66 143.042 6.786 142.838 6.948C142.634 7.11 142.463 7.302 142.325 7.524C142.187 7.746 142.088 7.986 142.028 8.244C141.944 8.472 141.836 8.625 141.704 8.703C141.578 8.781 141.392 8.799 141.146 8.757L140.228 8.595C140.312 7.995 140.477 7.467 140.723 7.011C140.969 6.555 141.278 6.174 141.65 5.868C142.022 5.556 142.448 5.322 142.928 5.166C143.414 5.01 143.936 4.932 144.494 4.932C145.058 4.932 145.577 5.016 146.051 5.184C146.531 5.346 146.945 5.583 147.293 5.895C147.641 6.207 147.914 6.588 148.112 7.038C148.31 7.482 148.409 7.986 148.409 8.55C148.409 9.03 148.337 9.477 148.193 9.891C148.055 10.299 147.863 10.689 147.617 11.061C147.377 11.433 147.095 11.796 146.771 12.15C146.453 12.498 146.114 12.852 145.754 13.212L142.478 16.56C142.73 16.494 142.982 16.44 143.234 16.398C143.492 16.356 143.735 16.335 143.963 16.335H148.04ZM158.805 16.659V18H151.821V16.659H154.557V8.19C154.557 7.92 154.566 7.641 154.584 7.353L152.388 9.216C152.304 9.282 152.22 9.324 152.136 9.342C152.052 9.36 151.971 9.363 151.893 9.351C151.821 9.339 151.755 9.315 151.695 9.279C151.641 9.237 151.596 9.195 151.56 9.153L151.011 8.388L154.881 5.049H156.312V16.659H158.805Z" fill="#8AB7C6"/>
<path d="M10.404 43.678H6.3V55H4.392V43.678H0.27V42.076H10.404V43.678ZM15.7802 49.411C15.7802 49.063 15.7292 48.742 15.6272 48.448C15.5312 48.154 15.3872 47.899 15.1952 47.683C15.0032 47.467 14.7692 47.299 14.4932 47.179C14.2172 47.059 13.8992 46.999 13.5392 46.999C12.8012 46.999 12.2192 47.212 11.7932 47.638C11.3732 48.064 11.1062 48.655 10.9922 49.411H15.7802ZM17.2292 53.695C17.0132 53.947 16.7642 54.166 16.4822 54.352C16.2002 54.532 15.9002 54.679 15.5822 54.793C15.2642 54.907 14.9342 54.991 14.5922 55.045C14.2562 55.099 13.9232 55.126 13.5932 55.126C12.9632 55.126 12.3782 55.021 11.8382 54.811C11.3042 54.595 10.8392 54.283 10.4432 53.875C10.0532 53.461 9.74723 52.951 9.52523 52.345C9.30923 51.733 9.20123 51.031 9.20123 50.239C9.20123 49.603 9.30023 49.012 9.49823 48.466C9.69623 47.914 9.97823 47.434 10.3442 47.026C10.7162 46.618 11.1692 46.297 11.7032 46.063C12.2372 45.829 12.8372 45.712 13.5032 45.712C14.0612 45.712 14.5742 45.805 15.0422 45.991C15.5162 46.171 15.9242 46.435 16.2662 46.783C16.6082 47.131 16.8752 47.56 17.0672 48.07C17.2652 48.58 17.3642 49.162 17.3642 49.816C17.3642 50.086 17.3342 50.269 17.2742 50.365C17.2142 50.455 17.1032 50.5 16.9412 50.5H10.9472C10.9652 51.046 11.0432 51.523 11.1812 51.931C11.3192 52.333 11.5082 52.669 11.7482 52.939C11.9942 53.209 12.2852 53.41 12.6212 53.542C12.9572 53.674 13.3322 53.74 13.7462 53.74C14.1362 53.74 14.4722 53.695 14.7542 53.605C15.0422 53.515 15.2882 53.419 15.4922 53.317C15.7022 53.209 15.8762 53.11 16.0142 53.02C16.1582 52.93 16.2842 52.885 16.3922 52.885C16.5362 52.885 16.6472 52.939 16.7252 53.047L17.2292 53.695ZM20.9066 47.611C21.2006 47.011 21.5546 46.54 21.9686 46.198C22.3826 45.856 22.8806 45.685 23.4626 45.685C23.6606 45.685 23.8466 45.709 24.0206 45.757C24.2006 45.799 24.3566 45.865 24.4886 45.955L24.3716 47.278C24.3296 47.44 24.2306 47.521 24.0746 47.521C23.9906 47.521 23.8646 47.506 23.6966 47.476C23.5286 47.44 23.3486 47.422 23.1566 47.422C22.8746 47.422 22.6256 47.464 22.4096 47.548C22.1936 47.626 21.9986 47.746 21.8246 47.908C21.6566 48.064 21.5066 48.259 21.3746 48.493C21.2426 48.721 21.1196 48.982 21.0056 49.276V55H19.2506V45.856H20.2586C20.4506 45.856 20.5796 45.892 20.6456 45.964C20.7176 46.03 20.7686 46.15 20.7986 46.324L20.9066 47.611ZM25.8424 55V45.856H26.8954C27.1414 45.856 27.2944 45.973 27.3544 46.207L27.4804 47.08C27.8164 46.678 28.1884 46.351 28.5964 46.099C29.0104 45.841 29.4934 45.712 30.0454 45.712C30.6514 45.712 31.1434 45.88 31.5214 46.216C31.8994 46.546 32.1754 46.996 32.3494 47.566C32.4814 47.242 32.6524 46.963 32.8624 46.729C33.0724 46.495 33.3064 46.303 33.5644 46.153C33.8224 46.003 34.0954 45.892 34.3834 45.82C34.6774 45.748 34.9744 45.712 35.2744 45.712C35.7604 45.712 36.1924 45.79 36.5704 45.946C36.9544 46.096 37.2784 46.318 37.5424 46.612C37.8064 46.906 38.0074 47.269 38.1454 47.701C38.2834 48.133 38.3524 48.625 38.3524 49.177V55H36.5884V49.177C36.5884 48.493 36.4384 47.977 36.1384 47.629C35.8444 47.281 35.4124 47.107 34.8424 47.107C34.5904 47.107 34.3504 47.152 34.1224 47.242C33.8944 47.326 33.6934 47.455 33.5194 47.629C33.3514 47.803 33.2164 48.019 33.1144 48.277C33.0184 48.535 32.9704 48.835 32.9704 49.177V55H31.2064V49.177C31.2064 48.469 31.0654 47.947 30.7834 47.611C30.5014 47.275 30.0874 47.107 29.5414 47.107C29.1634 47.107 28.8124 47.206 28.4884 47.404C28.1644 47.602 27.8674 47.872 27.5974 48.214V55H25.8424ZM46.1045 47.431C46.0565 47.509 46.0055 47.566 45.9515 47.602C45.8975 47.632 45.8285 47.647 45.7445 47.647C45.6485 47.647 45.5405 47.614 45.4205 47.548C45.3065 47.482 45.1655 47.41 44.9975 47.332C44.8355 47.254 44.6435 47.182 44.4215 47.116C44.1995 47.05 43.9355 47.017 43.6295 47.017C43.3775 47.017 43.1465 47.05 42.9365 47.116C42.7325 47.176 42.5585 47.263 42.4145 47.377C42.2705 47.485 42.1595 47.617 42.0815 47.773C42.0035 47.923 41.9645 48.085 41.9645 48.259C41.9645 48.487 42.0305 48.676 42.1625 48.826C42.3005 48.976 42.4775 49.105 42.6935 49.213C42.9155 49.321 43.1645 49.42 43.4405 49.51C43.7225 49.594 44.0075 49.684 44.2955 49.78C44.5895 49.876 44.8745 49.987 45.1505 50.113C45.4325 50.233 45.6815 50.386 45.8975 50.572C46.1195 50.752 46.2965 50.971 46.4285 51.229C46.5665 51.487 46.6355 51.802 46.6355 52.174C46.6355 52.6 46.5575 52.996 46.4015 53.362C46.2515 53.722 46.0265 54.034 45.7265 54.298C45.4325 54.562 45.0665 54.769 44.6285 54.919C44.1905 55.069 43.6895 55.144 43.1255 55.144C42.4955 55.144 41.9135 55.039 41.3795 54.829C40.8455 54.619 40.3985 54.352 40.0385 54.028L40.4525 53.353C40.5005 53.269 40.5605 53.206 40.6325 53.164C40.7045 53.116 40.8005 53.092 40.9205 53.092C41.0345 53.092 41.1515 53.134 41.2715 53.218C41.3915 53.302 41.5355 53.395 41.7035 53.497C41.8715 53.593 42.0755 53.683 42.3155 53.767C42.5555 53.845 42.8555 53.884 43.2155 53.884C43.5155 53.884 43.7765 53.848 43.9985 53.776C44.2205 53.698 44.4035 53.596 44.5475 53.47C44.6975 53.338 44.8085 53.188 44.8805 53.02C44.9525 52.852 44.9885 52.675 44.9885 52.489C44.9885 52.249 44.9195 52.051 44.7815 51.895C44.6495 51.733 44.4725 51.595 44.2505 51.481C44.0345 51.367 43.7855 51.268 43.5035 51.184C43.2215 51.1 42.9335 51.01 42.6395 50.914C42.3455 50.818 42.0575 50.707 41.7755 50.581C41.4935 50.455 41.2415 50.296 41.0195 50.104C40.8035 49.912 40.6265 49.678 40.4885 49.402C40.3565 49.126 40.2905 48.79 40.2905 48.394C40.2905 48.04 40.3625 47.701 40.5065 47.377C40.6565 47.053 40.8695 46.768 41.1455 46.522C41.4275 46.276 41.7725 46.081 42.1805 45.937C42.5945 45.787 43.0655 45.712 43.5935 45.712C44.1995 45.712 44.7455 45.808 45.2315 46C45.7235 46.192 46.1435 46.456 46.4915 46.792L46.1045 47.431ZM56.9855 45.712C57.6575 45.712 58.2635 45.823 58.8035 46.045C59.3495 46.261 59.8115 46.576 60.1895 46.99C60.5735 47.398 60.8675 47.893 61.0715 48.475C61.2755 49.051 61.3775 49.699 61.3775 50.419C61.3775 51.139 61.2755 51.79 61.0715 52.372C60.8675 52.954 60.5735 53.449 60.1895 53.857C59.8115 54.265 59.3495 54.58 58.8035 54.802C58.2635 55.018 57.6575 55.126 56.9855 55.126C56.3075 55.126 55.6955 55.018 55.1495 54.802C54.6095 54.58 54.1475 54.265 53.7635 53.857C53.3795 53.449 53.0825 52.954 52.8725 52.372C52.6685 51.79 52.5665 51.139 52.5665 50.419C52.5665 49.699 52.6685 49.051 52.8725 48.475C53.0825 47.893 53.3795 47.398 53.7635 46.99C54.1475 46.576 54.6095 46.261 55.1495 46.045C55.6955 45.823 56.3075 45.712 56.9855 45.712ZM56.9855 53.758C57.8495 53.758 58.4945 53.467 58.9205 52.885C59.3465 52.303 59.5595 51.484 59.5595 50.428C59.5595 49.372 59.3465 48.553 58.9205 47.971C58.4945 47.383 57.8495 47.089 56.9855 47.089C56.1095 47.089 55.4555 47.383 55.0235 47.971C54.5975 48.553 54.3845 49.372 54.3845 50.428C54.3845 51.484 54.5975 52.303 55.0235 52.885C55.4555 53.467 56.1095 53.758 56.9855 53.758ZM63.7286 55V47.296L62.7746 47.179C62.6366 47.149 62.5226 47.101 62.4326 47.035C62.3486 46.963 62.3066 46.861 62.3066 46.729V46H63.7286V45.172C63.7286 44.65 63.8036 44.185 63.9536 43.777C64.1036 43.369 64.3166 43.024 64.5926 42.742C64.8746 42.454 65.2106 42.238 65.6006 42.094C65.9966 41.944 66.4406 41.869 66.9326 41.869C67.3466 41.869 67.7276 41.929 68.0756 42.049L68.0396 42.931C68.0336 43.009 68.0096 43.069 67.9676 43.111C67.9256 43.147 67.8686 43.174 67.7966 43.192C67.7306 43.21 67.6466 43.222 67.5446 43.228C67.4486 43.228 67.3436 43.228 67.2296 43.228C66.9596 43.228 66.7136 43.261 66.4916 43.327C66.2696 43.393 66.0806 43.504 65.9246 43.66C65.7686 43.816 65.6486 44.023 65.5646 44.281C65.4806 44.533 65.4386 44.848 65.4386 45.226V46H68.0036V47.278H65.4926V55H63.7286ZM80.098 47.566C80.044 47.632 79.99 47.686 79.936 47.728C79.888 47.764 79.816 47.782 79.72 47.782C79.624 47.782 79.522 47.746 79.414 47.674C79.312 47.596 79.18 47.515 79.018 47.431C78.862 47.341 78.67 47.26 78.442 47.188C78.22 47.11 77.944 47.071 77.614 47.071C77.182 47.071 76.801 47.149 76.471 47.305C76.141 47.461 75.865 47.683 75.643 47.971C75.427 48.259 75.262 48.61 75.148 49.024C75.034 49.438 74.977 49.903 74.977 50.419C74.977 50.953 75.037 51.43 75.157 51.85C75.277 52.264 75.448 52.615 75.67 52.903C75.892 53.185 76.162 53.401 76.48 53.551C76.798 53.695 77.152 53.767 77.542 53.767C77.92 53.767 78.232 53.722 78.478 53.632C78.724 53.536 78.928 53.434 79.09 53.326C79.252 53.218 79.387 53.119 79.495 53.029C79.603 52.933 79.714 52.885 79.828 52.885C79.972 52.885 80.083 52.939 80.161 53.047L80.665 53.695C80.455 53.953 80.218 54.172 79.954 54.352C79.696 54.532 79.42 54.679 79.126 54.793C78.832 54.907 78.523 54.991 78.199 55.045C77.881 55.099 77.557 55.126 77.227 55.126C76.657 55.126 76.123 55.021 75.625 54.811C75.133 54.601 74.704 54.295 74.338 53.893C73.978 53.491 73.693 52.999 73.483 52.417C73.273 51.829 73.168 51.163 73.168 50.419C73.168 49.741 73.261 49.114 73.447 48.538C73.639 47.962 73.918 47.467 74.284 47.053C74.656 46.633 75.112 46.306 75.652 46.072C76.192 45.832 76.81 45.712 77.506 45.712C78.16 45.712 78.736 45.817 79.234 46.027C79.732 46.237 80.176 46.534 80.566 46.918L80.098 47.566ZM86.0421 45.712C86.7141 45.712 87.3201 45.823 87.8601 46.045C88.4061 46.261 88.8681 46.576 89.2461 46.99C89.6301 47.398 89.9241 47.893 90.1281 48.475C90.3321 49.051 90.4341 49.699 90.4341 50.419C90.4341 51.139 90.3321 51.79 90.1281 52.372C89.9241 52.954 89.6301 53.449 89.2461 53.857C88.8681 54.265 88.4061 54.58 87.8601 54.802C87.3201 55.018 86.7141 55.126 86.0421 55.126C85.3641 55.126 84.7521 55.018 84.2061 54.802C83.6661 54.58 83.2041 54.265 82.8201 53.857C82.4361 53.449 82.1391 52.954 81.9291 52.372C81.7251 51.79 81.6231 51.139 81.6231 50.419C81.6231 49.699 81.7251 49.051 81.9291 48.475C82.1391 47.893 82.4361 47.398 82.8201 46.99C83.2041 46.576 83.6661 46.261 84.2061 46.045C84.7521 45.823 85.3641 45.712 86.0421 45.712ZM86.0421 53.758C86.9061 53.758 87.5511 53.467 87.9771 52.885C88.4031 52.303 88.6161 51.484 88.6161 50.428C88.6161 49.372 88.4031 48.553 87.9771 47.971C87.5511 47.383 86.9061 47.089 86.0421 47.089C85.1661 47.089 84.5121 47.383 84.0801 47.971C83.6541 48.553 83.4411 49.372 83.4411 50.428C83.4411 51.484 83.6541 52.303 84.0801 52.885C84.5121 53.467 85.1661 53.758 86.0421 53.758ZM94.0402 47.125C94.2382 46.915 94.4452 46.723 94.6612 46.549C94.8772 46.375 95.1052 46.228 95.3452 46.108C95.5912 45.982 95.8522 45.886 96.1282 45.82C96.4102 45.748 96.7102 45.712 97.0282 45.712C97.5322 45.712 97.9732 45.796 98.3512 45.964C98.7352 46.132 99.0562 46.369 99.3142 46.675C99.5722 46.975 99.7672 47.338 99.8992 47.764C100.031 48.19 100.097 48.661 100.097 49.177V55H98.3332V49.177C98.3332 48.523 98.1832 48.016 97.8832 47.656C97.5832 47.29 97.1242 47.107 96.5062 47.107C96.0562 47.107 95.6332 47.215 95.2372 47.431C94.8472 47.641 94.4842 47.929 94.1482 48.295V55H92.3932V45.856H93.4462C93.6922 45.856 93.8452 45.973 93.9052 46.207L94.0402 47.125ZM108.36 48.07C108.072 47.692 107.76 47.428 107.424 47.278C107.094 47.128 106.722 47.053 106.308 47.053C105.504 47.053 104.88 47.344 104.436 47.926C103.998 48.502 103.779 49.345 103.779 50.455C103.779 51.037 103.827 51.535 103.923 51.949C104.025 52.357 104.169 52.693 104.355 52.957C104.547 53.215 104.781 53.407 105.057 53.533C105.333 53.653 105.645 53.713 105.993 53.713C106.503 53.713 106.944 53.599 107.316 53.371C107.688 53.143 108.036 52.822 108.36 52.408V48.07ZM110.124 41.716V55H109.062C108.816 55 108.663 54.883 108.603 54.649L108.45 53.596C108.06 54.058 107.616 54.43 107.118 54.712C106.626 54.988 106.056 55.126 105.408 55.126C104.886 55.126 104.412 55.024 103.986 54.82C103.566 54.616 103.206 54.319 102.906 53.929C102.606 53.533 102.375 53.044 102.213 52.462C102.051 51.88 101.97 51.211 101.97 50.455C101.97 49.777 102.06 49.147 102.24 48.565C102.42 47.983 102.681 47.479 103.023 47.053C103.365 46.627 103.779 46.294 104.265 46.054C104.751 45.808 105.3 45.685 105.912 45.685C106.464 45.685 106.932 45.775 107.316 45.955C107.706 46.135 108.054 46.39 108.36 46.72V41.716H110.124ZM114.409 45.856V55H112.654V45.856H114.409ZM114.742 43.03C114.742 43.192 114.709 43.348 114.643 43.498C114.577 43.642 114.487 43.771 114.373 43.885C114.265 43.993 114.136 44.08 113.986 44.146C113.836 44.206 113.68 44.236 113.518 44.236C113.356 44.236 113.203 44.206 113.059 44.146C112.915 44.08 112.786 43.993 112.672 43.885C112.564 43.771 112.477 43.642 112.411 43.498C112.351 43.348 112.321 43.192 112.321 43.03C112.321 42.862 112.351 42.706 112.411 42.562C112.477 42.412 112.564 42.283 112.672 42.175C112.786 42.061 112.915 41.974 113.059 41.914C113.203 41.848 113.356 41.815 113.518 41.815C113.68 41.815 113.836 41.848 113.986 41.914C114.136 41.974 114.265 42.061 114.373 42.175C114.487 42.283 114.577 42.412 114.643 42.562C114.709 42.706 114.742 42.862 114.742 43.03ZM125.617 55H123.853V47.278H119.263V52.633C119.263 52.993 119.35 53.263 119.524 53.443C119.704 53.617 119.932 53.704 120.208 53.704C120.37 53.704 120.508 53.683 120.622 53.641C120.742 53.599 120.844 53.554 120.928 53.506C121.012 53.452 121.084 53.404 121.144 53.362C121.204 53.32 121.258 53.299 121.306 53.299C121.366 53.299 121.411 53.314 121.441 53.344C121.477 53.368 121.513 53.41 121.549 53.47L122.071 54.316C121.783 54.58 121.441 54.784 121.045 54.928C120.649 55.072 120.238 55.144 119.812 55.144C119.074 55.144 118.504 54.937 118.102 54.523C117.706 54.109 117.508 53.518 117.508 52.75V47.278H116.446C116.344 47.278 116.257 47.248 116.185 47.188C116.119 47.122 116.086 47.026 116.086 46.9V46.189L117.58 45.982L117.967 43.255C117.991 43.153 118.036 43.075 118.102 43.021C118.174 42.961 118.264 42.931 118.372 42.931H119.263V46H125.617V55ZM126.013 42.976C126.013 43.138 125.98 43.294 125.914 43.444C125.848 43.588 125.758 43.717 125.644 43.831C125.536 43.939 125.407 44.026 125.257 44.092C125.107 44.152 124.951 44.182 124.789 44.182C124.627 44.182 124.474 44.152 124.33 44.092C124.186 44.026 124.057 43.939 123.943 43.831C123.835 43.717 123.748 43.588 123.682 43.444C123.622 43.294 123.592 43.138 123.592 42.976C123.592 42.808 123.622 42.649 123.682 42.499C123.748 42.349 123.835 42.22 123.943 42.112C124.057 41.998 124.186 41.911 124.33 41.851C124.474 41.785 124.627 41.752 124.789 41.752C124.951 41.752 125.107 41.785 125.257 41.851C125.407 41.911 125.536 41.998 125.644 42.112C125.758 42.22 125.848 42.349 125.914 42.499C125.98 42.649 126.013 42.808 126.013 42.976ZM132.062 45.712C132.734 45.712 133.34 45.823 133.88 46.045C134.426 46.261 134.888 46.576 135.266 46.99C135.65 47.398 135.944 47.893 136.148 48.475C136.352 49.051 136.454 49.699 136.454 50.419C136.454 51.139 136.352 51.79 136.148 52.372C135.944 52.954 135.65 53.449 135.266 53.857C134.888 54.265 134.426 54.58 133.88 54.802C133.34 55.018 132.734 55.126 132.062 55.126C131.384 55.126 130.772 55.018 130.226 54.802C129.686 54.58 129.224 54.265 128.84 53.857C128.456 53.449 128.159 52.954 127.949 52.372C127.745 51.79 127.643 51.139 127.643 50.419C127.643 49.699 127.745 49.051 127.949 48.475C128.159 47.893 128.456 47.398 128.84 46.99C129.224 46.576 129.686 46.261 130.226 46.045C130.772 45.823 131.384 45.712 132.062 45.712ZM132.062 53.758C132.926 53.758 133.571 53.467 133.997 52.885C134.423 52.303 134.636 51.484 134.636 50.428C134.636 49.372 134.423 48.553 133.997 47.971C133.571 47.383 132.926 47.089 132.062 47.089C131.186 47.089 130.532 47.383 130.1 47.971C129.674 48.553 129.461 49.372 129.461 50.428C129.461 51.484 129.674 52.303 130.1 52.885C130.532 53.467 131.186 53.758 132.062 53.758ZM140.06 47.125C140.258 46.915 140.465 46.723 140.681 46.549C140.897 46.375 141.125 46.228 141.365 46.108C141.611 45.982 141.872 45.886 142.148 45.82C142.43 45.748 142.73 45.712 143.048 45.712C143.552 45.712 143.993 45.796 144.371 45.964C144.755 46.132 145.076 46.369 145.334 46.675C145.592 46.975 145.787 47.338 145.919 47.764C146.051 48.19 146.117 48.661 146.117 49.177V55H144.353V49.177C144.353 48.523 144.203 48.016 143.903 47.656C143.603 47.29 143.144 47.107 142.526 47.107C142.076 47.107 141.653 47.215 141.257 47.431C140.867 47.641 140.504 47.929 140.168 48.295V55H138.413V45.856H139.466C139.712 45.856 139.865 45.973 139.925 46.207L140.06 47.125ZM153.876 47.431C153.828 47.509 153.777 47.566 153.723 47.602C153.669 47.632 153.6 47.647 153.516 47.647C153.42 47.647 153.312 47.614 153.192 47.548C153.078 47.482 152.937 47.41 152.769 47.332C152.607 47.254 152.415 47.182 152.193 47.116C151.971 47.05 151.707 47.017 151.401 47.017C151.149 47.017 150.918 47.05 150.708 47.116C150.504 47.176 150.33 47.263 150.186 47.377C150.042 47.485 149.931 47.617 149.853 47.773C149.775 47.923 149.736 48.085 149.736 48.259C149.736 48.487 149.802 48.676 149.934 48.826C150.072 48.976 150.249 49.105 150.465 49.213C150.687 49.321 150.936 49.42 151.212 49.51C151.494 49.594 151.779 49.684 152.067 49.78C152.361 49.876 152.646 49.987 152.922 50.113C153.204 50.233 153.453 50.386 153.669 50.572C153.891 50.752 154.068 50.971 154.2 51.229C154.338 51.487 154.407 51.802 154.407 52.174C154.407 52.6 154.329 52.996 154.173 53.362C154.023 53.722 153.798 54.034 153.498 54.298C153.204 54.562 152.838 54.769 152.4 54.919C151.962 55.069 151.461 55.144 150.897 55.144C150.267 55.144 149.685 55.039 149.151 54.829C148.617 54.619 148.17 54.352 147.81 54.028L148.224 53.353C148.272 53.269 148.332 53.206 148.404 53.164C148.476 53.116 148.572 53.092 148.692 53.092C148.806 53.092 148.923 53.134 149.043 53.218C149.163 53.302 149.307 53.395 149.475 53.497C149.643 53.593 149.847 53.683 150.087 53.767C150.327 53.845 150.627 53.884 150.987 53.884C151.287 53.884 151.548 53.848 151.77 53.776C151.992 53.698 152.175 53.596 152.319 53.47C152.469 53.338 152.58 53.188 152.652 53.02C152.724 52.852 152.76 52.675 152.76 52.489C152.76 52.249 152.691 52.051 152.553 51.895C152.421 51.733 152.244 51.595 152.022 51.481C151.806 51.367 151.557 51.268 151.275 51.184C150.993 51.1 150.705 51.01 150.411 50.914C150.117 50.818 149.829 50.707 149.547 50.581C149.265 50.455 149.013 50.296 148.791 50.104C148.575 49.912 148.398 49.678 148.26 49.402C148.128 49.126 148.062 48.79 148.062 48.394C148.062 48.04 148.134 47.701 148.278 47.377C148.428 47.053 148.641 46.768 148.917 46.522C149.199 46.276 149.544 46.081 149.952 45.937C150.366 45.787 150.837 45.712 151.365 45.712C151.971 45.712 152.517 45.808 153.003 46C153.495 46.192 153.915 46.456 154.263 46.792L153.876 47.431Z" fill="#8AB7C6"/>
</svg>
